<svg xmlns="http://www.w3.org/2000/svg" viewBox="0 0 2750 1850" width="2750" height="1850" preserveAspectRatio="xMidYMid meet">
  <!-- Static frame from Lottie export (visible layers only; zero-opacity keyframes omitted) -->
  <path fill="rgb(216,118,86)" d="M1436,1651 C1436,1651 1536,1651 1536,1651 C1536,1651 1536,1850 1536,1850 C1536,1850 1436,1850 1436,1850 C1436,1850 1436,1651 1436,1651z M1136,1651 C1136,1651 1236,1651 1236,1651 C1236,1651 1236,1850 1236,1850 C1236,1850 1136,1850 1136,1850 C1136,1850 1136,1651 1136,1651z M1736,1251 C1736,1251 1936,1251 1936,1251 C1936,1251 1936,1451 1936,1451 C1936,1451 1736,1451 1736,1451 C1736,1451 1736,1251 1736,1251z M1536,1251 C1536,1251 1636,1251 1636,1251 C1636,1251 1636,1651 1636,1651 C1636,1651 1536,1651 1536,1651 C1536,1651 1536,1251 1536,1251z M1036,1251 C1036,1251 1136,1251 1136,1251 C1136,1251 1136,1651 1136,1651 C1136,1651 1036,1651 1036,1651 C1036,1651 1036,1251 1036,1251z M736,1251 C736,1251 936,1251 936,1251 C936,1251 936,1451 936,1451 C936,1451 736,1451 736,1451 C736,1451 736,1251 736,1251z M1636,1151 C1636,1151 1736,1151 1736,1151 C1736,1151 1736,1850 1736,1850 C1736,1850 1636,1850 1636,1850 C1636,1850 1636,1151 1636,1151z M1136,1151 C1136,1151 1536,1151 1536,1151 C1536,1151 1536,1651 1536,1651 C1536,1651 1136,1651 1136,1651 C1136,1651 1136,1151 1136,1151z M936,1151 C936,1151 1036,1151 1036,1151 C1036,1151 1036,1850 1036,1850 C1036,1850 936,1850 936,1850 C936,1850 936,1151 936,1151z M936,1051 C936,1051 1736,1051 1736,1051 C1736,1051 1736,1151 1736,1151 C1736,1151 936,1151 936,1151 C936,1151 936,1051 936,1051z"/>
  <path fill="rgb(0,0,0)" d="M1536,1151 C1536,1151 1636,1151 1636,1151 C1636,1151 1636,1251 1636,1251 C1636,1251 1536,1251 1536,1251 C1536,1251 1536,1151 1536,1151z M1036,1151 C1036,1151 1136,1151 1136,1151 C1136,1151 1136,1251 1136,1251 C1136,1251 1036,1251 1036,1251 C1036,1251 1036,1151 1036,1151z"/>
</svg>
